REM DIRINDEX 1\2\4,1\2\5,1\2\6,1\3\7,1\3\8,1\3\9,1\3\10
REM DIRNAME folder01,folder02,folder03,folder04,folder05,folder06,folder07,folder08,folder09,folder10
TITLE ""
FILE "b_057.mp3" MP3
  TRACK 01 AUDIO
    TITLE "0:"
    INDEX 01 00:00:00
  TRACK 02 AUDIO
    TITLE "7:cjc057_05855"
    INDEX 01 00:00:15
  TRACK 03 AUDIO
    TITLE "0:"
    INDEX 01 00:01:36
  TRACK 04 AUDIO
    TITLE "8:cjc057_05856"
    INDEX 01 00:01:66
  TRACK 05 AUDIO
    TITLE "0:"
    INDEX 01 00:03:06
  TRACK 06 AUDIO
    TITLE "9:cjc057_05857"
    INDEX 01 00:03:47
  TRACK 07 AUDIO
    TITLE "0:"
    INDEX 01 00:07:25
  TRACK 08 AUDIO
    TITLE "7:cjc057_05858"
    INDEX 01 00:08:26
  TRACK 09 AUDIO
    TITLE "0:"
    INDEX 01 00:09:45
  TRACK 10 AUDIO
    TITLE "8:cjc057_05859"
    INDEX 01 00:10:00
  TRACK 11 AUDIO
    TITLE "0:"
    INDEX 01 00:12:44
  TRACK 12 AUDIO
    TITLE "9:cjc057_05860"
    INDEX 01 00:13:14
  TRACK 13 AUDIO
    TITLE "0:"
    INDEX 01 00:18:03
  TRACK 14 AUDIO
    TITLE "7:cjc057_05861"
    INDEX 01 00:19:07
  TRACK 15 AUDIO
    TITLE "0:"
    INDEX 01 00:20:39
  TRACK 16 AUDIO
    TITLE "8:cjc057_05862"
    INDEX 01 00:20:69
  TRACK 17 AUDIO
    TITLE "0:"
    INDEX 01 00:22:13
  TRACK 18 AUDIO
    TITLE "9:cjc057_05863"
    INDEX 01 00:22:52
  TRACK 19 AUDIO
    TITLE "0:"
    INDEX 01 00:26:11
  TRACK 20 AUDIO
    TITLE "7:cjc057_05864"
    INDEX 01 00:27:18
  TRACK 21 AUDIO
    TITLE "0:"
    INDEX 01 00:28:37
  TRACK 22 AUDIO
    TITLE "8:cjc057_05865"
    INDEX 01 00:28:66
  TRACK 23 AUDIO
    TITLE "0:"
    INDEX 01 00:30:03
  TRACK 24 AUDIO
    TITLE "9:cjc057_05866"
    INDEX 01 00:30:42
  TRACK 25 AUDIO
    TITLE "0:"
    INDEX 01 00:34:18
  TRACK 26 AUDIO
    TITLE "7:cjc057_05867"
    INDEX 01 00:35:21
  TRACK 27 AUDIO
    TITLE "0:"
    INDEX 01 00:36:36
  TRACK 28 AUDIO
    TITLE "8:cjc057_05868"
    INDEX 01 00:36:66
  TRACK 29 AUDIO
    TITLE "0:"
    INDEX 01 00:38:12
  TRACK 30 AUDIO
    TITLE "9:cjc057_05869"
    INDEX 01 00:38:49
  TRACK 31 AUDIO
    TITLE "0:"
    INDEX 01 00:42:72
  TRACK 32 AUDIO
    TITLE "7:cjc057_05870"
    INDEX 01 00:44:01
  TRACK 33 AUDIO
    TITLE "0:"
    INDEX 01 00:45:20
  TRACK 34 AUDIO
    TITLE "8:cjc057_05871"
    INDEX 01 00:45:51
  TRACK 35 AUDIO
    TITLE "0:"
    INDEX 01 00:47:05
  TRACK 36 AUDIO
    TITLE "9:cjc057_05872"
    INDEX 01 00:47:46
  TRACK 37 AUDIO
    TITLE "0:"
    INDEX 01 00:49:55
  TRACK 38 AUDIO
    TITLE "7:cjc057_05873"
    INDEX 01 00:50:60
  TRACK 39 AUDIO
    TITLE "0:"
    INDEX 01 00:52:06
  TRACK 40 AUDIO
    TITLE "8:cjc057_05874"
    INDEX 01 00:52:36
  TRACK 41 AUDIO
    TITLE "0:"
    INDEX 01 00:55:59
  TRACK 42 AUDIO
    TITLE "9:cjc057_05875"
    INDEX 01 00:56:22
  TRACK 43 AUDIO
    TITLE "0:"
    INDEX 01 00:58:69
  TRACK 44 AUDIO
    TITLE "7:cjc057_05876"
    INDEX 01 01:00:00
  TRACK 45 AUDIO
    TITLE "0:"
    INDEX 01 01:01:17
  TRACK 46 AUDIO
    TITLE "8:cjc057_05877"
    INDEX 01 01:01:48
  TRACK 47 AUDIO
    TITLE "0:"
    INDEX 01 01:02:73
  TRACK 48 AUDIO
    TITLE "9:cjc057_05878"
    INDEX 01 01:03:39
  TRACK 49 AUDIO
    TITLE "0:"
    INDEX 01 01:06:22
  TRACK 50 AUDIO
    TITLE "7:cjc057_05879"
    INDEX 01 01:07:21
  TRACK 51 AUDIO
    TITLE "0:"
    INDEX 01 01:08:50
  TRACK 52 AUDIO
    TITLE "8:cjc057_05880"
    INDEX 01 01:09:05
  TRACK 53 AUDIO
    TITLE "0:"
    INDEX 01 01:10:51
  TRACK 54 AUDIO
    TITLE "9:cjc057_05881"
    INDEX 01 01:11:17
  TRACK 55 AUDIO
    TITLE "0:"
    INDEX 01 01:14:41
  TRACK 56 AUDIO
    TITLE "7:cjc057_05882"
    INDEX 01 01:15:44
  TRACK 57 AUDIO
    TITLE "0:"
    INDEX 01 01:17:02
  TRACK 58 AUDIO
    TITLE "8:cjc057_05883"
    INDEX 01 01:17:32
  TRACK 59 AUDIO
    TITLE "0:"
    INDEX 01 01:18:53
  TRACK 60 AUDIO
    TITLE "9:cjc057_05884"
    INDEX 01 01:19:19
  TRACK 61 AUDIO
    TITLE "0:"
    INDEX 01 01:22:48
